<?xml version="1.0" encoding="UTF-8"?>
<!DOCTYPE svg PUBLIC "-//W3C//DTD SVG 1.1//EN" "http://www.w3.org/Graphics/SVG/1.1/DTD/svg11.dtd">
<!-- Creator: CorelDRAW 2020 (64 Bit) -->
<svg xmlns="http://www.w3.org/2000/svg" xml:space="preserve" width="3.426mm" height="2.6857mm" version="1.1" shape-rendering="geometricPrecision" text-rendering="geometricPrecision" image-rendering="optimizeQuality" fill-rule="evenodd" clip-rule="evenodd"
viewBox="0 0 42.97 33.69"
 xmlns:xlink="http://www.w3.org/1999/xlink"
 xmlns:xodm="http://www.corel.com/coreldraw/odm/2003">
 <g id="Camada_x0020_1">
  <metadata id="CorelCorpID_0Corel-Layer"/>
  <path fill="#16181D" d="M12.51 29.07c-0.06,0 -0.11,0 -0.17,0 -2.03,0 -3.21,-0.61 -4.62,-2.01l-4.81 -4.81c-0.32,-0.32 -0.64,-0.64 -0.96,-0.96 -1.26,-1.25 -1.95,-2.57 -1.95,-4.41 0,-1.86 0.7,-3.16 1.97,-4.44l4.81 -4.81c1.59,-1.59 2.81,-2.95 5.34,-2.95 2.45,0 4.59,1.37 5.56,3.44 0.49,-1.77 1.07,-4.48 2.13,-5.82 2.16,-2.71 6.08,-3.09 8.7,-0.8 0.93,0.82 1.63,1.96 1.9,3.18 0.05,-0 0.09,-0 0.13,-0 2.03,0 3.22,0.61 4.62,2.01 0.32,0.32 0.65,0.65 0.97,0.97l3.83 3.83c2.96,2.96 4.51,6.24 0.94,9.81l-4.81 4.81c-1.59,1.59 -2.81,2.95 -5.34,2.95 -2.41,0 -4.5,-1.32 -5.5,-3.31 -0.64,2.24 -1.33,4.36 -1.9,5.24 -2.91,4.47 -9.75,3.03 -10.85,-1.94z"/>
  <g id="_1992405312080">
   <path fill="#82BC4F" d="M16.82 27.64c0,1.71 2.06,2.07 2.81,0.93 0.37,-0.57 2.83,-9.57 3.08,-10.44l2.55 -8.93c0.31,-1.09 0.81,-2.36 0.81,-3.45 0,-0.32 -0.29,-0.72 -0.48,-0.89 -0.72,-0.63 -1.71,-0.49 -2.28,0.22 -0.35,0.44 -1.19,3.77 -1.39,4.46 -0.58,2.04 -1.15,3.98 -1.72,6.01l-3 10.51c-0.12,0.44 -0.38,1.11 -0.38,1.57z"/>
   <path fill="#82BC4F" d="M29.1 10.59c0,0.92 0.59,1.34 1.06,1.82 0.51,0.51 0.97,0.97 1.48,1.48 0.51,0.51 0.97,0.97 1.48,1.48 0.37,0.37 1.22,1.13 1.46,1.5 -0.21,0.32 -3.77,3.8 -4.35,4.39 -0.45,0.45 -1.14,0.97 -1.14,1.83 0,0.82 0.64,1.52 1.66,1.52 0.78,0 1.48,-0.94 2.19,-1.64l4.81 -4.81c1.51,-1.51 0.24,-2.32 -0.94,-3.5l-3.83 -3.83c-0.34,-0.34 -0.63,-0.63 -0.98,-0.98 -0.53,-0.53 -0.63,-0.7 -1.46,-0.7 -0.82,0 -1.44,0.84 -1.44,1.44z"/>
   <path fill="#82BC4F" d="M4.46 16.87c0,0.65 0.29,0.91 0.63,1.25 0.34,0.34 0.63,0.63 0.98,0.98l4.81 4.81c0.53,0.53 0.63,0.7 1.46,0.7 0.41,0 0.78,-0.23 1,-0.45 1.13,-1.13 -0.09,-2.29 -0.62,-2.82 -0.51,-0.51 -0.97,-0.97 -1.48,-1.48 -0.46,-0.46 -2.74,-2.68 -2.94,-2.98 0.21,-0.32 3.76,-3.8 4.35,-4.39 0.45,-0.45 1.14,-0.97 1.14,-1.83 0,-0.82 -0.64,-1.52 -1.66,-1.52 -0.78,0 -1.48,0.94 -2.19,1.64l-4.81 4.81c-0.35,0.35 -0.67,0.61 -0.67,1.28z"/>
  </g>
 </g>
</svg>
